<svg viewBox="0 0 800 400" xmlns="http://www.w3.org/2000/svg">
  <defs>
    <linearGradient id="cyberGradient" x1="0%" y1="0%" x2="100%" y2="100%">
      <stop offset="0%" style="stop-color:#00f5ff;stop-opacity:0.8" />
      <stop offset="50%" style="stop-color:#bf00ff;stop-opacity:0.6" />
      <stop offset="100%" style="stop-color:#ff0080;stop-opacity:0.8" />
    </linearGradient>
    <linearGradient id="bgGradient" x1="0%" y1="0%" x2="100%" y2="100%">
      <stop offset="0%" style="stop-color:#0a0a0a;stop-opacity:1" />
      <stop offset="50%" style="stop-color:#1a1a1a;stop-opacity:1" />
      <stop offset="100%" style="stop-color:#0a0a0a;stop-opacity:1" />
    </linearGradient>
    <radialGradient id="glowEffect" cx="50%" cy="50%" r="50%">
      <stop offset="0%" style="stop-color:#00f5ff;stop-opacity:0.4" />
      <stop offset="70%" style="stop-color:#00f5ff;stop-opacity:0.1" />
      <stop offset="100%" style="stop-color:#00f5ff;stop-opacity:0" />
    </radialGradient>
    <filter id="glow">
      <feGaussianBlur stdDeviation="3" result="coloredBlur"/>
      <feMerge><feMergeNode in="coloredBlur"/><feMergeNode in="SourceGraphic"/></feMerge>
    </filter>
  </defs>
  <rect width="800" height="400" fill="url(#bgGradient)"/>
  <defs>
    <pattern id="grid" width="40" height="40" patternUnits="userSpaceOnUse">
      <path d="M 40 0 L 0 0 0 40" fill="none" stroke="#00f5ff" stroke-width="0.5" opacity="0.2"/>
    </pattern>
  </defs>
  <rect width="800" height="400" fill="url(#grid)"/>
  <circle cx="200" cy="120" r="80" fill="url(#glowEffect)" opacity="0.6">
    <animate attributeName="opacity" values="0.6;0.3;0.6" dur="3s" repeatCount="indefinite"/>
  </circle>
  <circle cx="600" cy="280" r="60" fill="url(#glowEffect)" opacity="0.4">
    <animate attributeName="opacity" values="0.4;0.7;0.4" dur="4s" repeatCount="indefinite"/>
  </circle>
  <g transform="translate(400, 200)">
    <path d="M-40,-30 C-50,-40 -30,-50 -10,-45 C10,-50 30,-40 40,-30 C45,-10 40,10 35,25 C30,35 20,40 10,35 C0,40 -10,35 -20,30 C-35,25 -45,10 -40,-30 Z" 
          fill="none" stroke="url(#cyberGradient)" stroke-width="3" filter="url(#glow)">
      <animate attributeName="stroke-width" values="3;5;3" dur="2s" repeatCount="indefinite"/>
    </path>
    <g stroke="url(#cyberGradient)" stroke-width="1.5" fill="none" opacity="0.8">
      <path d="M-25,-15 Q-10,-10 0,-15 Q10,-10 25,-15">
        <animate attributeName="opacity" values="0.8;0.3;0.8" dur="1.5s" repeatCount="indefinite"/>
      </path>
      <path d="M-20,0 Q0,5 20,0">
        <animate attributeName="opacity" values="0.3;0.8;0.3" dur="2s" repeatCount="indefinite"/>
      </path>
      <path d="M-15,15 Q0,20 15,15">
        <animate attributeName="opacity" values="0.8;0.3;0.8" dur="1.8s" repeatCount="indefinite"/>
      </path>
    </g>
    <circle cx="0" cy="0" r="8" fill="url(#cyberGradient)" filter="url(#glow)">
      <animate attributeName="r" values="8;12;8" dur="2s" repeatCount="indefinite"/>
    </circle>
  </g>
  <g stroke="url(#cyberGradient)" stroke-width="2" fill="url(#cyberGradient)" opacity="0.7">
    <circle cx="150" cy="80" r="6" filter="url(#glow)">
      <animate attributeName="opacity" values="0.7;0.3;0.7" dur="3s" repeatCount="indefinite"/>
    </circle>
    <circle cx="650" cy="90" r="5" filter="url(#glow)">
      <animate attributeName="opacity" values="0.5;0.8;0.5" dur="2.8s" repeatCount="indefinite"/>
    </circle>
    <circle cx="130" cy="280" r="6" filter="url(#glow)">
      <animate attributeName="opacity" values="0.6;0.9;0.6" dur="2.2s" repeatCount="indefinite"/>
    </circle>
    <circle cx="620" cy="320" r="5" filter="url(#glow)">
      <animate attributeName="opacity" values="0.7;0.3;0.7" dur="2.7s" repeatCount="indefinite"/>
    </circle>
  </g>
  <g stroke="url(#cyberGradient)" stroke-width="1" fill="none" opacity="0.5">
    <path d="M400,200 L150,80" stroke-dasharray="5,5">
      <animate attributeName="stroke-dashoffset" values="0;10;0" dur="2s" repeatCount="indefinite"/>
    </path>
    <path d="M400,200 L650,90" stroke-dasharray="5,5">
      <animate attributeName="stroke-dashoffset" values="0;10;0" dur="2.5s" repeatCount="indefinite"/>
    </path>
    <path d="M400,200 L130,280" stroke-dasharray="5,5">
      <animate attributeName="stroke-dashoffset" values="0;10;0" dur="3s" repeatCount="indefinite"/>
    </path>
    <path d="M400,200 L620,320" stroke-dasharray="5,5">
      <animate attributeName="stroke-dashoffset" values="0;10;0" dur="2.8s" repeatCount="indefinite"/>
    </path>
  </g>
</svg>